<svg width="341" height="512" viewBox="0 0 341 512" fill="none" xmlns="http://www.w3.org/2000/svg">
<path fill-rule="evenodd" clip-rule="evenodd" d="M151.07 1.42899C145.09 2.69799 142.961 4.99998 147.767 4.99998H150.7L153.422 17.594C154.92 24.521 155.915 30.418 155.635 30.698C155.355 30.978 149.172 25.739 141.896 19.055C129.13 7.32798 128.525 6.91198 124.661 7.20098C120.212 7.53298 118.201 9.99998 122.378 9.99998C125.313 9.99998 125.498 10.527 129.127 29.264L131.406 41.027L129.119 42.629C126.03 44.793 127.713 46.176 132.025 45.017C133.936 44.504 136.738 43.831 138.25 43.523C141.887 42.781 141.781 41 138.1 41C135.453 41 135.109 40.585 134.158 36.25C130.902 21.396 129.885 15.781 130.364 15.302C130.659 15.007 136.794 20.219 143.996 26.883C156.113 38.095 161 41.19 161 37.651C161 36.91 159.917 31.397 158.594 25.401C154.558 7.11699 154.403 5.10598 156.893 3.36298C158.793 2.03198 159.001 -0.224015 157.191 0.137985C156.811 0.213985 154.056 0.794985 151.07 1.42899ZM172.683 0.708984C172.416 1.14398 172.041 3.03699 171.849 4.91599C171.436 8.96199 173.467 10.258 174.4 6.54398C175.09 3.79298 177.814 3.21799 182.221 4.89399L184.573 5.78798L183.263 17.644C181.369 34.782 180.931 36.439 178.192 36.827C173.916 37.433 176.607 39.493 182.851 40.393C190.299 41.466 192.62 39.836 186.643 37.731C185.806 37.436 188.407 9.70899 189.551 6.72699C189.869 5.89899 190.888 5.36898 191.815 5.54998C198.71 6.89698 199 7.05498 199 9.45998C199 12.413 200.672 13.706 201.335 11.265C203.068 4.87998 203.017 4.22099 200.742 3.65799C199.509 3.35299 193.55 2.61398 187.5 2.01498C181.45 1.41598 175.75 0.699985 174.834 0.422985C173.918 0.144985 172.95 0.273984 172.683 0.708984ZM224.326 32.484C219.21 36.068 220.001 44.909 225.629 47.049C231.632 49.331 237 45.641 237 39.232C237 32.731 229.599 28.791 224.326 32.484ZM90.589 42.077C89.165 43.769 88 45.765 88 46.512C88 49.617 90.104 53.003 92.948 54.473C101.173 58.726 109.085 47.994 102.545 41.455C98.931 37.841 93.935 38.101 90.589 42.077ZM79.5399 117.936C79.2209 118.451 80.2069 119.469 81.7299 120.2L84.5 121.527L84.774 232.513C84.925 293.556 84.8 344.528 84.496 345.785C84.193 347.042 82.832 348.494 81.472 349.011C76.912 350.744 78.813 352 86 352C93.124 352 95.094 350.747 90.636 349.052C89.336 348.558 87.986 347.407 87.636 346.495C86.529 343.61 86.89 127 88.002 127C88.553 127 90.528 130.262 92.391 134.25C94.253 138.238 100.596 151.4 106.486 163.5C122.095 195.567 125 201.656 125 202.307C125 202.628 122.863 203.028 120.25 203.195L115.5 203.5L115.201 210.401C114.902 217.294 116.182 221.151 117.447 217.168C118.09 215.14 125.271 211 128.144 211C129.1 211 132.093 216.062 136.276 224.75C145.668 244.259 160.009 273.904 172.377 299.377L183 321.254L182.985 375.877C182.976 405.92 182.639 430.983 182.235 431.573C181.831 432.163 180.712 432.936 179.75 433.292C178.788 433.647 178 434.401 178 434.969C178 435.62 182.423 436 190 436C201.809 436 204.902 435.054 199.636 433.052C198.336 432.558 196.986 431.407 196.636 430.495C196.286 429.583 196 411.397 196 390.082V351.327L200.25 351.414L204.5 351.5L204.757 278.602L205.013 205.705L221.257 206.31C243.228 207.129 256.666 210.438 261.539 216.228C264.61 219.878 265.217 218.7 264.801 209.895L264.5 203.5L233.5 203.27C216.45 203.144 188.421 203.032 171.214 203.02L139.927 203L132.577 187.75C128.535 179.363 119.776 161.311 113.114 147.636C106.451 133.961 101 122.459 101 122.075C101 121.691 100.082 120.392 98.961 119.189C97.176 117.273 95.876 117 88.52 117C83.899 117 79.8579 117.421 79.5399 117.936ZM182.985 248.75L182.97 291.5L177.357 280C149.209 222.332 143 209.324 143 208.022C143 206.757 148.068 206.361 166.75 206.168L183 206L182.985 248.75ZM202.235 266.75C202.381 300.163 202.193 327.897 201.817 328.383C201.441 328.869 199.978 326.872 198.567 323.946L196 318.626V262.313V206H198.985H201.969L202.235 266.75ZM271 255.427C271 260.14 271.871 261.065 273.95 258.56C275.669 256.49 274.871 251.587 272.75 251.185C271.29 250.908 271 251.611 271 255.427ZM64.2 255.2C62.049 257.351 63.0679 263 65.6069 263C66.5909 263 67 261.68 67 258.5C67 253.893 66.314 253.086 64.2 255.2ZM5.22995 377.001C1.11295 379.511 -0.439051 382.847 0.407949 387.363C1.16995 391.424 5.96295 396 9.45495 396C12.971 396 18.683 393.29 20.433 390.792C21.295 389.562 22 387.326 22 385.825C22 376.89 13.096 372.205 5.22995 377.001ZM17.902 380.396C21.11 383.81 20.4099 387.824 16.1019 390.718C11.4189 393.863 6.71595 393.725 4.07295 390.365C1.15395 386.654 1.46495 383.628 5.07695 380.589C9.17896 377.137 14.762 377.053 17.902 380.396ZM339.586 378.75C339.175 379.163 334.402 379.735 328.98 380.022C323.559 380.309 318.757 380.925 318.311 381.389C317.865 381.854 319.725 384.094 322.444 386.367C325.163 388.64 329.123 392.157 331.244 394.183L335.101 397.865L336.05 395.368C337.324 392.018 337.249 391.548 335.652 392.874C333.476 394.68 330.73 390.958 331.589 387.368C331.967 385.79 332.719 383.938 333.26 383.25C334.644 381.493 337.73 381.695 338.803 383.612C339.523 384.899 339.837 384.564 340.359 381.953C341.051 378.493 340.816 377.516 339.586 378.75ZM330.965 383.75C330.945 384.163 330.338 385.567 329.615 386.87L328.301 389.241L324.9 386.15L321.5 383.059L326.25 383.029C328.863 383.013 330.984 383.337 330.965 383.75ZM24.734 396.25C24.073 397.973 10.246 404.658 8.27895 404.206C6.57795 403.815 6.66695 405.002 8.64295 409.096C11.0789 414.142 13.941 416.898 17.42 417.551C24.113 418.807 30.027 414.093 29.955 407.561C29.903 402.916 25.684 393.774 24.734 396.25ZM315.315 397.472C312.342 398.757 310.338 401.465 307.295 408.31C306.147 410.893 306.201 411.071 307.956 410.514C310.067 409.844 324 416.356 324 418.013C324 420.527 325.952 418.54 327.877 414.065C330.437 408.114 330.527 405.701 328.331 401.983C325.549 397.273 320.123 395.393 315.315 397.472ZM323.618 400.909C325.353 401.967 327.041 404.029 327.425 405.559C328.194 408.619 326.385 414.036 324.629 413.935C324.008 413.899 320.575 412.411 317 410.629C309.769 407.024 309.134 405.268 313.607 401.25C316.664 398.503 319.514 398.406 323.618 400.909ZM28 406.739C28 411.373 24.017 415 18.926 415C15.86 415 14.671 414.394 12.639 411.797C11.26 410.036 10.3809 408.193 10.6839 407.702C10.9879 407.211 14.4459 405.27 18.3679 403.389C24.9579 400.23 25.595 400.1 26.75 401.676C27.438 402.615 28 404.893 28 406.739ZM26.763 419.565C19.681 423.408 19.248 433.353 25.99 437.335C29.538 439.431 32.2739 439.438 36.6429 437.365C43.3579 434.179 44.8069 427.128 39.8959 421.535C37.3869 418.677 36.095 418.008 33.146 418.04C31.141 418.062 28.268 418.748 26.763 419.565ZM37.0869 421.282C44.0559 426.633 39.642 436 30.15 436C23.971 436 21.004 430.098 24.772 425.3C26.697 422.849 31.696 419.999 34 420.038C34.825 420.052 36.2139 420.612 37.0869 421.282ZM299.348 421.247C299.028 421.764 301.294 425.908 304.383 430.456C307.472 435.004 310 439.237 310 439.862C310 441.674 311.833 441.181 312.965 439.066C314.352 436.475 314.27 435.959 312.577 436.609C311.759 436.923 310.675 436.26 310.027 435.051C309.106 433.33 309.307 432.36 311.127 429.724C312.351 427.951 313.405 426.405 313.47 426.29C314.003 425.336 318.007 427.598 318.033 428.867C318.059 430.142 318.498 429.983 320.033 428.139C322.648 425 322.519 424.353 319.25 424.228C317.738 424.17 312.771 423.264 308.214 422.215C303.271 421.076 299.694 420.686 299.348 421.247ZM309.25 424.986C310.212 424.994 311 425.605 311 426.345C311 427.698 307.245 431.677 306.691 430.911C305.293 428.974 303 424.942 303 424.419C303 424.06 304.012 424.038 305.25 424.37C306.488 424.701 308.288 424.979 309.25 424.986ZM47.565 435.2C46.669 438.246 36.2229 447.3 34.4089 446.603C32.3839 445.826 32.672 448.393 34.829 450.345C37.083 452.385 38.117 452.469 37.382 450.553C37.041 449.664 38.6899 447.369 41.6629 444.594C44.3239 442.112 46.6409 440.485 46.8119 440.978C46.9839 441.471 46.592 444.49 45.94 447.687C43.898 457.711 43.707 460 44.916 460C45.54 460 48.945 457.307 52.483 454.015C57.227 449.602 59.3869 448.211 60.7079 448.716C62.3829 449.356 62.397 449.244 60.914 447.005C58.89 443.946 57.0089 443.308 56.9669 445.667C56.9369 447.352 48.368 455.701 47.529 454.862C47.326 454.66 47.967 450.446 48.953 445.497C50.406 438.197 50.5079 436.161 49.4929 434.7C48.3189 433.012 48.2 433.043 47.565 435.2ZM285.32 439.639C281.346 443.906 279.604 446.981 281.998 445.501C283.207 444.754 285.615 446.377 291.545 451.934C294.013 454.247 295.773 456.558 295.457 457.07C295.141 457.581 295.471 457.986 296.191 457.969C297.747 457.931 301.46 453.126 300.598 452.265C300.269 451.936 300 452.192 300 452.833C300 454.751 297.498 454.159 295.181 451.693C292.115 448.429 293.923 446.967 300.119 447.7C303.315 448.079 305.481 447.846 306.482 447.015C308.656 445.211 308.36 443.758 306.105 445.166C304.769 446.001 303.222 446.065 300.855 445.383C298.003 444.561 297.547 444.019 297.813 441.771C298.188 438.604 294.998 435 291.82 435C290.514 435 287.908 436.86 285.32 439.639ZM294.799 441.551C295.002 443.634 294.444 445.194 293.038 446.466C291.022 448.29 290.927 448.28 288.49 445.99C287.12 444.704 286 443.203 286 442.654C286 440.507 289.465 437.913 291.948 438.203C293.981 438.439 294.561 439.121 294.799 441.551ZM273.469 450.783C268.07 455.347 266.685 460.557 269.449 465.901C272.876 472.528 279.845 473.831 285.465 468.896C289.355 465.481 289.79 463.572 287.442 460.221C286.585 458.997 286.162 457.547 286.501 456.998C287.643 455.15 284.328 455.98 282.5 458C281.016 459.64 280.96 460 282.19 460C284.265 460 287.357 463.627 286.713 465.305C286.422 466.064 284.577 467.447 282.613 468.379C279.355 469.925 278.78 469.938 276.038 468.52C272.183 466.526 269.674 461.761 270.5 458.001C271.249 454.59 275.302 451.644 278.046 452.514C280.409 453.265 280.527 452.669 278.429 450.571C276.478 448.621 276.003 448.642 273.469 450.783ZM62.1999 451.2C60.4299 452.97 60.742 454.244 62.681 453.159C63.855 452.502 64.812 452.669 65.856 453.713C67.121 454.978 67.146 455.539 66.018 457.354C63.107 462.042 57.404 467.936 55.75 467.967C53.417 468.011 53.544 468.799 56.25 471.056C58.923 473.287 60.1339 473.513 59.4179 471.648C59.1329 470.904 61.2289 467.507 64.0769 464.099C69.4299 457.692 72.229 456.623 72.82 460.76C73.195 463.389 74.52 463.694 75.417 461.357C75.763 460.453 75.924 459.641 75.774 459.552C75.623 459.462 72.976 457.277 69.892 454.695C63.623 449.446 63.8499 449.55 62.1999 451.2ZM254 465.711C250.975 467.696 249.074 469.514 249.775 469.752C251.419 470.308 259.044 481.519 259.868 484.593L260.5 486.947L266.265 483.223C270.4 480.552 271.955 478.957 271.765 477.578C271.619 476.521 270.937 475.471 270.249 475.245C269.539 475.011 269.21 475.409 269.489 476.166C270.108 477.85 269.206 479.097 265.808 481.258C263.148 482.95 263.088 482.933 260.9 479.859L258.684 476.747L261.03 474.977C262.321 474.004 263.967 473.434 264.688 473.711C266.273 474.319 266.348 473.519 264.953 470.913C263.956 469.049 263.789 469.097 261.406 471.929C260.031 473.564 258.313 474.674 257.588 474.395C256.516 473.984 254 469.898 254 468.568C254 467.668 259.707 464.633 261.193 464.743C262.277 464.822 262.688 464.351 262.336 463.434C261.525 461.32 260.096 461.71 254 465.711ZM75.274 467.565C73.408 469.036 71.559 471.739 70.888 473.979C69.885 477.327 69.9899 478.3 71.6609 481.175C74.2839 485.685 80.336 487.92 84.46 485.9C88.774 483.788 91.455 479.545 91.455 474.829C91.455 471.396 90.905 470.284 88.015 467.871C83.694 464.264 79.587 464.165 75.274 467.565ZM86.365 469.073C93.453 474.648 84.9789 487.626 76.9579 483.478C71.7549 480.788 72.17 473.371 77.77 468.966C80.959 466.458 83.074 466.484 86.365 469.073ZM237.75 475.064C233.479 477.269 232 478.58 232 480.162C232 482.195 232.112 482.172 234.452 479.646C235.801 478.191 237.145 477 237.44 477C238.423 477 245 490.921 245 493.001C245 494.989 245.097 495.001 248.228 493.382C251.145 491.873 251.266 491.642 249.478 490.98C248.352 490.563 246.005 487.154 244.03 483.068C241.094 476.995 240.787 475.743 242.03 474.935C242.839 474.41 244.501 474.215 245.723 474.502C247.412 474.899 247.807 474.661 247.366 473.512C246.531 471.335 244.266 471.701 237.75 475.064ZM98.6519 475.843C99.1579 477.86 92.496 492 91.039 492C88.41 492 90.608 493.747 96.608 496.428C102.087 498.877 103.31 499.123 104.065 497.928C105.454 495.735 105.182 495.14 103.047 495.698C101.085 496.211 95 494.072 95 492.869C95 490.874 101.703 478.027 102.75 478.015C105.058 477.987 104.028 476.205 101.118 475.191C98.65 474.331 98.2959 474.425 98.6519 475.843ZM224.069 481.416C223.139 482.537 223.246 482.902 224.581 483.166C225.651 483.378 226.952 485.662 228.139 489.412C229.167 492.664 229.889 495.444 229.742 495.591C229.595 495.738 225.802 493.354 221.313 490.293C215.783 486.523 212.593 484.942 211.422 485.392C209.879 485.984 209.859 486.187 211.233 487.278C213.374 488.976 217.247 500.879 216.556 503.634C216.019 505.773 216.158 505.841 219.032 504.839C221.568 503.955 221.832 503.587 220.607 502.639C219.091 501.464 215.394 491.273 216.194 490.472C216.442 490.225 219.831 492.267 223.725 495.011C230.596 499.851 233 500.922 233 499.139C233 498.666 231.9 494.812 230.556 490.576C229.211 486.34 228.359 482.227 228.663 481.437C229.396 479.526 225.652 479.509 224.069 481.416ZM115.106 485.564C111.157 488.887 109.625 494.168 111.388 498.385C113.132 502.558 115.161 504.078 119.819 504.703C129.887 506.053 135.41 490.269 126.723 484.973C122.361 482.313 118.752 482.496 115.106 485.564ZM126.886 487.488C128.758 489.319 128.643 496.37 126.694 499.345C123.59 504.082 115.893 503.479 113.941 498.345C112.503 494.561 114.727 487.94 118 486.262C120.763 484.847 124.748 485.396 126.886 487.488ZM200.811 487.677C199.239 488.092 199.243 488.243 200.866 489.866C202.725 491.725 205.61 505.204 204.525 506.96C203.761 508.195 206.664 508.219 209.5 507C210.982 506.363 211.088 506.122 209.91 506.07C208.123 505.991 205.612 497.213 205.542 490.8C205.499 486.947 204.951 486.585 200.811 487.677ZM142.5 488.756C136.66 490.052 132.874 498.369 135.387 504.383C137.085 508.449 139.562 510 144.352 510C149.216 510 151 509.12 151 506.722C151 505.586 151.745 503.835 152.655 502.829C154.232 501.086 154.126 501.004 150.405 501.079C148.257 501.122 147.063 501.385 147.75 501.662C149.187 502.242 149.385 505.844 148.092 507.885C146.874 509.809 142.467 508.558 139.297 505.388C137.107 503.198 136.856 502.3 137.431 498.705C138.361 492.89 140.386 491 145.687 491C149.303 491 150.215 491.391 150.932 493.25C151.727 495.313 151.861 495.348 152.537 493.672C153.852 490.41 147.988 487.537 142.5 488.756ZM160.019 492.523C161.467 494.267 160.63 507.77 158.972 509.428C157.176 511.224 157.977 512 161.622 512C164.74 512 165.07 511.789 163.992 510.49C162.395 508.566 163.149 494.73 164.97 492.536C166.078 491.201 165.755 491 162.5 491C159.26 491 158.925 491.205 160.019 492.523ZM174.506 499.75C172.94 504.563 170.991 509.288 170.175 510.25C168.798 511.873 168.974 511.994 172.595 511.921C174.743 511.878 175.938 511.615 175.25 511.338C173.458 510.614 173.706 506.327 175.582 505.607C176.452 505.273 178.671 505 180.514 505C184.005 505 185.647 507.15 184.48 510.192C184.038 511.344 184.58 511.569 186.957 511.22C189.84 510.797 190.984 509.56 189.165 508.833C188.706 508.65 186.477 504.563 184.211 499.75C181.946 494.938 179.476 491 178.723 491C177.885 491 176.249 494.395 174.506 499.75ZM180.749 498.147C182.187 501.955 181.673 503 178.362 503C176.042 503 175.897 502.741 176.538 499.75C177.79 493.912 178.98 493.459 180.749 498.147Z" fill="black"/>
</svg>
