<svg width="436" height="221" viewBox="0 0 436 221" fill="none" xmlns="http://www.w3.org/2000/svg">
<path fill-rule="evenodd" clip-rule="evenodd" d="M0 0.689049C0 1.20705 0.675 1.88905 1.5 2.20605C2.816 2.71005 3 12.36 3 80.69C3 148.723 2.81 158.757 1.5 159.844C-0.99 161.911 -0.213 162.844 4 162.844C7.993 162.844 9.339 161.572 6.5 160.482C5.185 159.978 5 150.459 5 83.175C5 35.948 5.357 6.80905 5.928 7.39405C6.439 7.91605 12.246 19.594 18.833 33.344C31.043 58.831 31.313 59.794 26.25 59.829C24.219 59.843 24 60.33 24 64.844C24 67.594 24.45 69.844 25 69.844C25.55 69.844 26 69.465 26 69.001C26 68.538 27.566 67.3151 29.481 66.284C32.904 64.441 32.986 64.4431 34.421 66.3771C35.223 67.4591 43.79 84.769 53.459 104.844L71.039 141.344L71.02 179.734C71.002 215.109 70.863 218.228 69.25 219.452C67.751 220.59 68.721 220.78 76 220.78C83.797 220.78 84.335 220.656 82.5 219.27C80.6 217.836 80.484 216.39 80.178 190.302L79.857 162.844H82.765H85.673L86.33 112.184C86.691 84.321 87.102 61.441 87.243 61.34C87.385 61.239 93.125 61.4791 100 61.8751C114.215 62.6921 119.184 63.801 124.363 67.315L128 69.784V64.824V59.865L84.836 59.605L41.672 59.344L31.346 38.344C25.667 26.794 19.103 13.519 16.76 8.84405L12.5 0.344048L6.25 0.0460438C2.802 -0.117956 0 0.170049 0 0.689049ZM70.91 90.594L70.819 119.344L57.455 92.344C50.105 77.494 44.07 64.557 44.045 63.594C44.004 62.012 45.292 61.844 57.5 61.844H71L70.91 90.594ZM85 103.844C85 126.944 84.633 145.844 84.185 145.844C83.737 145.844 82.612 144.254 81.685 142.31C80.195 139.186 80 134.316 80 100.31V61.844H82.5H85V103.844ZM156.784 83.5821C149.771 87.9311 150.251 100.359 157.561 103.69C161.352 105.417 167.104 105.078 170.647 102.918C177.087 98.9911 177.324 88.3471 171.071 83.8941C167.516 81.3631 160.605 81.2121 156.784 83.5821ZM180.777 83.4011C182.788 84.8091 183 85.7981 183 93.7481C183 101.876 182.83 102.62 180.75 103.624C178.93 104.501 180.085 104.722 186.8 104.776C199.054 104.876 204 101.589 204 93.344C204 85.242 198.773 81.844 186.31 81.844C179.006 81.844 178.684 81.9351 180.777 83.4011ZM213.353 83.77C207.058 87.609 206.675 98.084 212.659 102.79C217.784 106.822 228.094 104.773 231.118 99.1231C232.716 96.1381 232.601 90.335 230.88 87.121C228.085 81.896 219.209 80.2 213.353 83.77ZM237.75 83.518C239.791 84.942 240 85.896 240 93.813C240 101.873 239.829 102.621 237.75 103.624C235.84 104.545 236.33 104.709 241 104.709C245.67 104.709 246.16 104.545 244.25 103.624C242.205 102.637 242.003 101.847 242.03 94.941L242.061 87.344L250.28 96.126C254.801 100.956 258.837 104.894 259.25 104.876C259.663 104.858 260 100.399 260 94.966C260 85.854 260.174 84.966 262.25 83.518C264.412 82.01 264.285 81.95 259 81.964C254.324 81.977 253.837 82.142 255.75 83.064C257.769 84.038 258 84.876 258 91.225V98.3L249.729 90.072C242.995 83.373 240.905 81.854 238.479 81.896L235.5 81.949L237.75 83.518ZM266 84.518V87.193L268.314 85.018C269.587 83.822 271.612 82.844 272.814 82.844C274.914 82.844 275 83.232 275 92.691C275 101.915 274.858 102.607 272.75 103.624C270.874 104.528 271.575 104.72 276.973 104.776C283.107 104.84 283.329 104.763 281.223 103.287C279.193 101.866 279 100.912 279 92.287V82.844H281.917C283.934 82.844 285.466 83.692 286.885 85.594L288.937 88.344L288.968 85.094L289 81.844H277.5H266V84.518ZM296.353 83.77C290.058 87.609 289.675 98.084 295.659 102.79C300.784 106.822 311.094 104.773 314.118 99.1231C315.716 96.1381 315.601 90.335 313.88 87.121C311.085 81.896 302.209 80.2 296.353 83.77ZM320.777 83.4011C322.774 84.7991 323 85.811 323 93.344C323 100.877 322.774 101.889 320.777 103.287C318.707 104.738 319.288 104.844 329.277 104.844H340V101.889V98.9351L337.545 101.389C335.157 103.778 331.796 104.471 328.582 103.237C327.297 102.744 327 100.893 327 93.3901C327 84.7961 327.157 84.074 329.25 83.064C331.126 82.16 330.425 81.968 325.027 81.912C318.893 81.848 318.671 81.9251 320.777 83.4011ZM347.784 83.5821C340.771 87.9311 341.251 100.359 348.561 103.69C352.352 105.417 358.104 105.078 361.647 102.918C368.087 98.9911 368.324 88.3471 362.071 83.8941C358.516 81.3631 351.605 81.2121 347.784 83.5821ZM376.763 83.409C373.308 85.284 371 89.6841 371 94.3941C371 97.2121 371.775 98.8191 374.4 101.444C377.425 104.469 378.39 104.842 383.15 104.83C391.705 104.809 393 104.181 393 100.056C393 98.1011 393.745 95.679 394.655 94.673C396.239 92.922 396.079 92.845 390.905 92.874C386.746 92.898 385.903 93.14 387.25 93.924C389.881 95.456 389.677 102.494 386.978 103.351C380.886 105.284 375.011 99.9681 375.004 92.5171C374.996 84.4271 384.165 79.918 389.591 85.344C392.682 88.435 393 88.445 393 85.451C393 84.135 392.288 82.785 391.418 82.451C388.487 81.326 379.522 81.9121 376.763 83.409ZM399.777 83.4011C401.774 84.7991 402 85.811 402 93.344C402 100.877 401.774 101.889 399.777 103.287C397.671 104.762 397.894 104.84 404.027 104.765C407.587 104.722 409.825 104.445 409 104.15C405.96 103.064 405 100.434 405 93.1921C405 87.0011 405.325 85.619 407.189 83.883L409.377 81.844H403.466C397.831 81.844 397.659 81.9171 399.777 83.4011ZM418.086 90.594C416.294 95.407 413.953 100.582 412.884 102.094L410.94 104.844H415.161C418.907 104.844 419.179 104.695 417.573 103.521C416.175 102.499 415.922 101.475 416.461 99.021C417.114 96.049 417.438 95.844 421.482 95.844C425.429 95.844 425.899 96.117 426.9 98.986C427.821 101.63 427.718 102.337 426.247 103.454C424.725 104.609 425.186 104.784 429.823 104.812L435.145 104.844L433.255 102.442C432.216 101.12 429.669 95.9451 427.595 90.9421C425.521 85.9381 423.266 81.844 422.584 81.844C421.902 81.844 419.878 85.782 418.086 90.594ZM168.443 85.3771C171.401 88.5691 172.448 93.9551 170.977 98.4141C168.931 104.615 162.805 105.778 158.589 100.767C155.12 96.6451 154.907 88.636 158.174 85.158C161.101 82.043 165.438 82.1351 168.443 85.3771ZM193.881 83.952C199.665 85.969 201.99 95.0451 198.016 100.097C195.837 102.867 191.894 104.262 188.915 103.317C187.198 102.772 187 101.684 187 92.777C187 81.76 187.127 81.598 193.881 83.952ZM225.411 85.921C230.625 92.117 227.909 103.844 221.26 103.844C217.368 103.844 215.276 102.133 213.508 97.505C209.358 86.636 218.515 77.725 225.411 85.921ZM308.411 85.921C313.625 92.117 310.909 103.844 304.26 103.844C300.368 103.844 298.276 102.133 296.508 97.505C292.358 86.636 301.515 77.725 308.411 85.921ZM359.443 85.3771C362.401 88.5691 363.448 93.9551 361.977 98.4141C359.931 104.615 353.805 105.778 349.589 100.767C346.12 96.6451 345.907 88.636 349.174 85.158C352.101 82.043 356.438 82.1351 359.443 85.3771ZM422.36 93.669C418.882 94.114 418.604 93.569 420.069 89.161L421.337 85.344L423.12 89.344L424.903 93.344L422.36 93.669ZM179.777 133.401C181.774 134.799 182 135.811 182 143.344C182 150.877 181.774 151.889 179.777 153.287C177.671 154.762 177.894 154.84 184.027 154.765C187.587 154.722 189.825 154.445 189 154.15C185.96 153.064 185 150.434 185 143.192C185 137.001 185.325 135.619 187.189 133.883L189.377 131.844H183.466C177.831 131.844 177.659 131.917 179.777 133.401ZM193.777 133.401C195.788 134.809 196 135.798 196 143.748C196 151.876 195.83 152.62 193.75 153.624C191.84 154.545 192.33 154.709 197 154.709C201.67 154.709 202.16 154.545 200.25 153.624C198.203 152.636 198.004 151.854 198.045 144.941L198.09 137.344L206.429 146.094C211.015 150.907 215.157 154.845 215.634 154.846C216.11 154.847 216.355 150.487 216.177 145.156C215.872 136.004 215.983 135.363 218.177 133.676L220.5 131.888L215.561 131.866L210.623 131.844L212.811 133.883C214.65 135.596 214.996 136.996 214.972 142.633L214.944 149.344L206.43 140.594C199.248 133.212 197.419 131.844 194.736 131.844C191.572 131.844 191.567 131.852 193.777 133.401ZM222 134.979V138.114L224.116 135.424C225.636 133.492 226.975 132.82 228.866 133.039C231.46 133.339 231.504 133.476 231.788 142.02C232.049 149.902 231.872 150.885 229.849 152.77L227.623 154.844H233.422C239.1 154.844 239.176 154.807 237.066 153.094C235.102 151.499 234.937 150.545 235.205 142.344C235.496 133.452 235.532 133.34 238.134 133.039C240.025 132.82 241.364 133.492 242.884 135.424L245 138.114V134.979V131.844H233.5H222V134.979ZM248.75 133.064C250.842 134.073 251 134.797 251 143.344C251 151.891 250.842 152.615 248.75 153.624C246.974 154.48 248.74 154.723 257.142 154.776L267.783 154.844L268.44 152.226C269.274 148.903 268.497 148.047 267.069 150.715C265.864 152.967 260.396 154.422 257.087 153.372C255.385 152.831 255 151.893 255 148.277V143.844H258.95C261.658 143.844 263.221 144.395 263.92 145.594C264.721 146.969 264.939 146.379 264.939 142.844C264.939 139.309 264.721 138.719 263.92 140.094C263.221 141.293 261.658 141.844 258.95 141.844H255V137.344V132.844H259C261.667 132.844 263.667 133.511 265 134.844C267.59 137.434 268 137.366 268 134.344V131.844L257.25 131.912C248.771 131.965 246.975 132.209 248.75 133.064ZM278.314 133.794C274.308 136.237 272.754 139.105 272.821 143.933C272.92 151.134 277.35 154.855 285.797 154.83C294.009 154.807 295 154.209 295 149.277C295 146.205 295.509 144.647 296.75 143.924C298.075 143.152 297.043 142.913 292.5 142.938C287.909 142.963 287.028 143.183 288.75 143.875C290.548 144.598 291 145.569 291 148.705C291 151.362 290.489 152.826 289.418 153.237C286.014 154.543 282.749 153.747 279.923 150.921C277.53 148.528 277 147.154 277 143.344C277 134.385 285.841 129.594 291.652 135.405C294.67 138.423 295.438 138.127 294.053 134.483C293.128 132.051 292.597 131.844 287.275 131.848C283.322 131.85 280.495 132.464 278.314 133.794ZM300.75 133.003C302.837 134.067 303 134.815 303 143.344C303 151.891 302.842 152.615 300.75 153.624C298.885 154.523 299.611 154.709 305 154.709C310.389 154.709 311.115 154.523 309.25 153.624C307.42 152.741 307 151.714 307 148.118C307 142.352 308.749 142.7 313.172 149.344L316.5 154.344L324.5 154.63C331.966 154.896 332.354 154.812 330.308 153.363C328.404 152.016 328.252 151.419 329.156 148.828C330.093 146.139 330.622 145.844 334.5 145.844C338.344 145.844 338.912 146.152 339.808 148.724C340.603 151.002 340.474 151.942 339.192 153.224C337.698 154.717 337.993 154.844 342.974 154.844C348.237 154.844 348.327 154.797 346.439 153.032C345.372 152.036 342.742 146.861 340.593 141.532C338.445 136.204 336.129 131.844 335.447 131.844C334.765 131.844 332.523 136.231 330.465 141.594C328.407 146.957 326.281 151.907 325.739 152.594C323.863 154.977 321.074 153.822 317.546 149.2C313.44 143.824 313.307 143.259 315.976 142.561C317.063 142.276 318.494 140.855 319.156 139.402C320.208 137.093 320.081 136.48 318.152 134.552C316.261 132.66 314.696 132.309 307.223 132.1C300.13 131.902 298.92 132.071 300.75 133.003ZM350.777 133.401C352.788 134.809 353 135.798 353 143.748C353 151.876 352.83 152.62 350.75 153.624C348.93 154.501 350.085 154.722 356.8 154.776C369.054 154.876 374 151.589 374 143.344C374 135.242 368.773 131.844 356.31 131.844C349.006 131.844 348.684 131.935 350.777 133.401ZM385.102 134.013C384.601 135.295 382.82 139.879 381.143 144.199C379.466 148.52 377.285 152.668 376.297 153.418C374.704 154.626 375.067 154.781 379.5 154.782C383.709 154.783 384.184 154.607 382.5 153.666C381.4 153.052 380.327 152.405 380.115 152.229C379.904 152.052 380.296 150.544 380.987 148.876C382.11 146.165 382.698 145.844 386.542 145.844C390.559 145.844 390.887 146.053 391.539 149.021C392.078 151.475 391.825 152.499 390.427 153.521C388.851 154.673 389.376 154.844 394.5 154.844C399.533 154.844 400.129 154.659 398.627 153.56C397.661 152.854 394.988 147.828 392.686 142.391C390.384 136.954 387.94 132.32 387.256 132.094C386.572 131.867 385.603 132.731 385.102 134.013ZM314.75 135.629C315.438 136.507 316 137.504 316 137.844C316 139.511 313.159 141.728 310.25 142.33L307 143.003V137.844V132.685L310.25 133.358C312.038 133.728 314.063 134.75 314.75 135.629ZM363.881 133.952C369.665 135.969 371.99 145.045 368.016 150.097C365.837 152.867 361.894 154.262 358.915 153.317C357.198 152.772 357 151.684 357 142.777C357 131.76 357.127 131.598 363.881 133.952ZM335.839 143.665C331.636 144.39 331.087 143.623 332.784 139.399L334.369 135.455L336.035 139.399C337.627 143.17 337.618 143.358 335.839 143.665ZM389 142.959C389 143.446 387.65 143.844 386 143.844C382.484 143.844 382.569 144.121 384.602 139.255L386.203 135.422L387.602 138.748C388.371 140.577 389 142.472 389 142.959Z" fill="black"/>
</svg>
